<svg height="453pt" viewBox="0 0 453 453.16476" width="453pt" xmlns="http://www.w3.org/2000/svg"><path d="m284.128906 55.871094-33.699218-28.019532c-13.421876-11.160156-35.222657-11.160156-48.640626 0l-33.699218 28.019532-15.933594 13.246094-23.078125 19.191406s-103.65625 86.234375-115.167969 95.800781l154.183594 128.203125 33.699219 28.015625c13.414062 11.15625 35.214843 11.15625 48.628906 0l33.699219-28.015625 154.179687-128.210938c-1.152343-1.089843-154.171875-128.230468-154.171875-128.230468zm0 0" fill="#87796f"/><path d="m440.359375 181.917969c-1.164063-1.09375-128.75-107.113281-154.3125-128.351563l-33.703125-28.023437c-14.464844-12.03125-38.003906-12.03125-52.476562 0l-72.707032 60.457031s-103.65625 86.234375-115.167968 95.804688c-.6875.566406-1.085938 1.414062-1.085938 2.304687 0 .894531.394531 1.738281 1.082031 2.308594l187.886719 156.214843c7.234375 6.015626 16.730469 9.023438 26.230469 9.023438s19-3.007812 26.234375-9.023438l187.878906-156.226562c.660156-.546875 1.054688-1.355469 1.082031-2.214844.027344-.859375-.316406-1.6875-.941406-2.273437zm-191.855469 156.105469c-12.347656 10.269531-32.441406 10.269531-44.792968 0l-185.109376-153.914063c20.050782-16.671875 112.394532-93.496094 112.394532-93.496094l72.710937-60.453125c12.351563-10.273437 32.453125-10.277344 44.804688 0l33.699219 28.019532c47.878906 39.78125 135.152343 112.320312 151.414062 125.910156zm0 0" fill="#3a312a"/><path d="m64.902344 22.355469c-1.945313 23.128906-26.046875 26.777343-26.046875 26.777343 20.691406.972657 25.847656 28.117188 25.847656 28.117188.441406-19.351562 26.644531-28.402344 26.644531-28.402344-19.628906-1.175781-26.445312-26.492187-26.445312-26.492187zm0 0" fill="#d7e057"/><path d="m91.527344 45.851562c-17.210938-1.027343-23.664063-24.046874-23.730469-24.28125-.378906-1.402343-1.695313-2.324218-3.164063-2.203124-1.449218.132812-2.597656 1.285156-2.71875 2.734374-1.71875 20.429688-22.625 23.925782-23.507812 24.066407-1.527344.230469-2.625 1.578125-2.546875 3.117187.082031 1.542969 1.316406 2.769532 2.855469 2.84375 18.054687.851563 22.996094 25.4375 23.046875 25.683594.273437 1.421875 1.515625 2.433594 2.941406 2.433594.085937 0 .167969-.003906.253906-.007813 1.527344-.128906 2.714844-1.386719 2.75-2.917969.386719-17.019531 24.382813-25.554687 24.625-25.640624 1.351563-.46875 2.183594-1.828126 1.988281-3.246094-.199218-1.414063-1.367187-2.496094-2.792968-2.582032zm-27.132813 20.691407c-2.714843-6.261719-7.417969-13.8125-15.175781-17.753907 5.863281-2.808593 12.820312-7.824218 16.40625-16.542968 3.101562 6.140625 8.398438 13.757812 16.664062 17.441406-6.011718 3.285156-13.84375 8.8125-17.894531 16.855469zm0 0" fill="#3a312a"/><path d="m21.507812 56.316406c-1.378906 16.355469-18.425781 18.941406-18.425781 18.941406 14.636719.6875 18.285157 19.886719 18.285157 19.886719.3125-13.691406 18.84375-20.089843 18.84375-20.089843-13.882813-.832032-18.703126-18.738282-18.703126-18.738282zm0 0" fill="#d7e057"/><path d="m40.386719 72.058594c-11.53125-.691406-15.945313-16.371094-15.984375-16.53125-.382813-1.402344-1.710938-2.332032-3.164063-2.203125-1.453125.128906-2.601562 1.285156-2.722656 2.738281-1.15625 13.742188-15.292969 16.132812-15.882813 16.226562-1.527343.230469-2.6249995 1.578126-2.5468745 3.121094.0820315 1.539063 1.3164065 2.769532 2.8554685 2.84375 12.070313.566406 15.445313 17.285156 15.476563 17.449219.269531 1.425781 1.519531 2.441406 2.945312 2.441406.082031 0 .164063-.003906.25-.011719 1.527344-.125 2.714844-1.386718 2.75-2.921874.261719-11.417969 16.664063-17.265626 16.828125-17.320313 1.351563-.46875 2.1875-1.828125 1.992188-3.246094-.195313-1.414062-1.363282-2.5-2.796875-2.585937zm-19.167969 13.589844c-1.847656-3.769532-4.679688-7.894532-8.890625-10.558594 3.710937-2.082032 7.390625-5.257813 9.742187-9.832032 2.113282 3.746094 5.304688 7.90625 9.878907 10.445313-3.699219 2.203125-7.980469 5.480469-10.730469 9.945313zm0 0" fill="#3a312a"/><path d="m21.507812 3c-1.378906 16.359375-18.425781 18.941406-18.425781 18.941406 14.636719.6875 18.285157 19.886719 18.285157 19.886719.3125-13.6875 18.84375-20.089844 18.84375-20.089844-13.882813-.828125-18.703126-18.738281-18.703126-18.738281zm0 0" fill="#d7e057"/><path d="m40.386719 18.746094c-11.53125-.691406-15.941407-16.371094-15.984375-16.53125-.382813-1.402344-1.710938-2.335938-3.164063-2.2031252-1.453125.1328122-2.601562 1.2851562-2.722656 2.7382812-1.15625 13.742188-15.292969 16.128906-15.882813 16.226562-1.527343.226563-2.6249995 1.578126-2.5468745 3.117188.0820315 1.539062 1.3164065 2.769531 2.8554685 2.84375 12.070313.566406 15.445313 17.289062 15.476563 17.453125.269531 1.425781 1.519531 2.4375 2.945312 2.4375.082031 0 .164063 0 .25-.007813 1.527344-.128906 2.714844-1.390624 2.75-2.921874.261719-11.417969 16.664063-17.269532 16.828125-17.324219 1.351563-.46875 2.1875-1.828125 1.992188-3.246094-.195313-1.414063-1.363282-2.5-2.796875-2.582031zm-19.167969 13.589844c-1.847656-3.773438-4.679688-7.894532-8.890625-10.5625 3.710937-2.082032 7.390625-5.257813 9.738281-9.832032 2.113282 3.75 5.308594 7.910156 9.882813 10.449219-3.699219 2.199219-7.980469 5.480469-10.730469 9.945313zm0 0" fill="#3a312a"/><path d="m363.648438 87.585938h-275.179688c-17.703125 0-32.050781 14.351562-32.050781 32.054687v298.46875c0 17.703125 14.351562 32.054687 32.050781 32.054687h275.179688c17.703124 0 32.054687-14.351562 32.054687-32.054687v-298.464844c0-17.707031-14.351563-32.058593-32.054687-32.058593zm0 0" fill="#fce8cb"/><path d="m363.648438 84.585938h-66.929688c-1.660156 0-3 1.34375-3 3 0 1.660156 1.339844 3 3 3h66.929688c16.019531 0 29.054687 13.035156 29.054687 29.054687v298.46875c0 16.019531-13.035156 29.054687-29.054687 29.054687h-275.179688c-16.019531 0-29.054688-13.035156-29.054688-29.054687v-298.464844c0-16.023437 13.035157-29.054687 29.054688-29.054687h178.734375c1.660156 0 3-1.34375 3-3 0-1.660156-1.339844-3-3-3h-178.734375c-19.328125 0-35.054688 15.726562-35.054688 35.054687v298.464844c0 19.328125 15.726563 35.054687 35.054688 35.054687h275.179688c19.328124 0 35.054687-15.726562 35.054687-35.054687v-298.464844c0-19.332031-15.726563-35.058593-35.054687-35.058593zm0 0" fill="#3a312a"/><path d="m235.484375 108.730469c-48.847656 0-80.3125 39.167969-80.3125 84.496093 0 42.246094 30.582031 68.648438 66.671875 68.648438 13.015625 0 24.148438-1.886719 34.910156-6.722656 2.417969-1.085938 3.589844-3.871094 2.664063-6.359375-1.007813-2.707031-4.066407-3.960938-6.722657-2.820313-8.195312 3.519532-18.011718 5.34375-28.433593 5.34375-32.566407 0-56.550781-22.664062-56.550781-59.410156 0-44.667969 30.148437-73.054688 66.011718-73.054688 34.109375 0 53.25 22.886719 53.25 54.792969 0 25.523438-12.539062 40.484375-23.761718 40.265625-7.261719-.222656-9.902344-7.921875-6.601563-24.644531l7.484375-39.828125c-5.722656-2.640625-14.082031-4.621094-23.546875-4.621094-30.585937 0-52.148437 24.863282-52.148437 52.148438 0 17.382812 11.003906 27.726562 23.765624 27.726562 13.199219 0 23.324219-6.378906 31.023438-19.363281h.878906c-.660156 13.421875 7.480469 19.363281 16.285156 19.363281 20.683594 0 39.164063-19.363281 39.164063-52.367187 0-36.75-25.746094-63.59375-64.03125-63.59375zm8.800781 74.152343c-2.421875 13.644532-14.082031 29.925782-26.84375 29.925782-9.679687 0-14.523437-7.042969-14.523437-16.722656 0-21.34375 15.621093-39.605469 34.988281-39.605469 5.058594 0 8.796875.878906 11 1.539062zm0 0" fill="#f16c7a"/><path d="m249.765625 155.144531c-3.683594-1.105469-7.675781-1.664062-11.863281-1.664062-20.945313 0-37.984375 19.113281-37.984375 42.605469 0 12.164062 6.710937 19.722656 17.519531 19.722656 14.175781 0 27.082031-17.074219 29.796875-32.378906l4.621094-24.863282c.28125-1.503906-.621094-2.980468-2.089844-3.421875zm-8.433594 27.214844c-2.253906 12.695313-13.179687 27.449219-23.890625 27.449219-10.402344 0-11.523437-9.597656-11.523437-13.722656 0-19.84375 14.648437-36.605469 31.988281-36.605469 2.625 0 5.148438.25 7.535156.753906zm25.703125-32.367187c.253906-1.351563-.441406-2.703126-1.691406-3.28125-6.742188-3.109376-15.78125-4.894532-24.800781-4.894532-30.410157 0-55.148438 24.738282-55.148438 55.148438 0 20.167968 13.464844 30.722656 26.765625 30.722656 12.066406 0 21.78125-4.855469 29.515625-14.796875.824219 3.609375 2.417969 6.707031 4.742188 9.144531 3.46875 3.644532 8.414062 5.652344 13.929687 5.652344 20.953125 0 42.167969-19.019531 42.167969-55.367188 0-39.210937-27.566406-66.59375-67.03125-66.59375-47.496094 0-83.3125 37.613282-83.3125 87.496094 0 41.515625 29.296875 71.648438 69.671875 71.648438 14.050781 0 25.535156-2.21875 36.140625-6.984375 3.851563-1.730469 5.714844-6.183594 4.242187-10.140625-.769531-2.066406-2.304687-3.683594-4.332031-4.550782-2.019531-.863281-4.347656-.855468-6.382812.015626-7.765625 3.335937-17.191407 5.101562-27.25 5.101562-32.027344 0-53.550781-22.667969-53.550781-56.410156 0-40.589844 26.5-70.050782 63.011718-70.050782 30.996094 0 50.25 19.84375 50.25 51.789063 0 13.984375-3.941406 25.875-10.820312 32.621094-3.121094 3.0625-6.621094 4.730469-9.851563 4.648437-1.941406-.058594-2.800781-.867187-3.28125-1.464844-1.300781-1.628906-3.085937-6.339843-.460937-19.625zm-11.710937 63.191406c1.863281 2.335937 4.558593 3.625 7.824219 3.726562 4.921874.128906 9.921874-2.167968 14.203124-6.367187 8.019532-7.863281 12.621094-21.3125 12.621094-36.902344 0-35.105469-22.082031-57.789063-56.25-57.789063-39.988281 0-69.011718 31.984376-69.011718 76.050782 0 37.332031 23.929687 62.410156 59.550781 62.410156 10.863281 0 21.105469-1.933594 29.613281-5.585938.542969-.234374 1.132812-.238281 1.660156-.015624.496094.214843.875.617187 1.066406 1.128906.375 1.003906-.101562 2.132812-1.082031 2.574218-9.9375 4.464844-20.324219 6.457032-33.679687 6.457032-36.894532 0-63.671875-27.609375-63.671875-65.648438 0-46.460937 33.238281-81.496094 77.316406-81.496094 35.933594 0 61.027344 24.917969 61.027344 60.59375 0 32.410157-18.191407 49.367188-36.167969 49.367188-3.855469 0-7.257812-1.347656-9.582031-3.789062-2.683594-2.816407-3.964844-7.117188-3.703125-12.425782.039062-.820312-.257813-1.621094-.824219-2.214844-.566406-.597656-1.351563-.933593-2.171875-.933593h-.878906c-1.0625 0-2.042969.558593-2.582032 1.46875-7.140624 12.042969-16.445312 17.894531-28.441406 17.894531-12.226562 0-20.765625-10.167969-20.765625-24.722656 0-27.101563 22.046875-49.148438 49.148438-49.148438 7.246093 0 14.445312 1.242188 20.148437 3.441406l-7.027344 37.421876c-2.386718 12.089843-1.84375 20.105468 1.660157 24.503906zm0 0" fill="#3a312a"/><path d="m13.910156 184.109375c-6.660156 6.203125-10.800781 15.042969-10.800781 24.839844v206.722656c0 9.800781 4.140625 18.640625 10.800781 24.859375l154.179688-128.21875zm0 0" fill="#f16c7a"/><path d="m170.007812 310.003906-154.179687-128.199218c-1.164063-.96875-2.859375-.921876-3.964844.109374-7.46875 6.953126-11.753906 16.808594-11.753906 27.035157v131.105469c0 1.65625 1.339844 3 3 3 1.65625 0 3-1.34375 3-3v-131.105469c0-7.683594 2.886719-15.117188 8-20.769531l149.289063 124.132812-149.292969 124.148438c-5.175781-5.699219-7.996094-12.988282-7.996094-20.789063v-45.011719c0-1.660156-1.34375-3-3-3-1.660156 0-3 1.339844-3 3v45.011719c0 10.214844 4.28125 20.078125 11.75 27.050781.578125.539063 1.3125.808594 2.050781.808594.679688 0 1.359375-.230469 1.917969-.695312l154.179687-128.21875c.683594-.570313 1.082032-1.417969 1.082032-2.304688 0-.890625-.398438-1.738281-1.082032-2.308594zm0 0" fill="#3a312a"/><path d="m438.308594 184.109375-154.179688 128.203125 154.179688 128.21875c6.660156-6.21875 10.800781-15.058594 10.800781-24.859375v-206.722656c0-9.796875-4.140625-18.636719-10.800781-24.839844zm0 0" fill="#f16c7a"/><path d="m440.351562 181.914062c-1.105468-1.03125-2.800781-1.078124-3.960937-.109374l-154.179687 128.199218c-.6875.570313-1.082032 1.414063-1.082032 2.304688s.394532 1.734375 1.082032 2.304687l154.179687 128.222657c.554687.460937 1.238281.691406 1.917969.691406.738281 0 1.472656-.269532 2.046875-.804688 7.46875-6.976562 11.753906-16.839844 11.753906-27.054687v-206.71875c0-10.222657-4.285156-20.078125-11.757813-27.035157zm5.757813 233.757813c0 7.800781-2.824219 15.089844-8 20.789063l-149.285156-124.148438 149.285156-124.132812c5.113281 5.652343 8 13.085937 8 20.769531zm0 0" fill="#3a312a"/><path d="m284.121094 312.3125-33.699219-28.019531c-13.414063-11.15625-35.214844-11.15625-48.628906 0l-33.699219 28.019531-154.179688 128.207031c6.054688 5.707031 14.253907 9.203125 23.265626 9.203125h377.855468c9.011719 0 17.210938-3.496094 23.265625-9.203125zm0 0" fill="#f16c7a"/><path d="m440.21875 438.214844-187.878906-156.226563c-14.464844-12.03125-38-12.03125-52.464844 0l-187.875 156.226563c-.660156.546875-1.054688 1.355468-1.082031 2.214844-.027344.855468.316406 1.683593.941406 2.273437 6.851563 6.460937 15.847656 10.019531 25.324219 10.019531h377.851562c9.476563 0 18.46875-3.558594 25.324219-10.019531.625-.585937.96875-1.417969.941406-2.273437-.027343-.859376-.421875-1.667969-1.082031-2.214844zm-25.183594 8.507812h-377.855468c-6.785157 0-13.273438-2.175781-18.597657-6.183594l185.128907-153.941406c12.347656-10.265625 32.441406-10.269531 44.792968 0l185.125 153.941406c-5.320312 4.007813-11.808594 6.183594-18.59375 6.183594zm0 0" fill="#3a312a"/><path d="m412.859375 166.78125v34.585938l20.769531-17.277344c-3.691406-3.09375-11.050781-9.222656-20.769531-17.308594zm0 0" fill="#6b5b51"/><g fill="#ce4e61"><path d="m438.109375 188.171875-25 20.777344v206.722656l.820313.679687 24.179687 20.121094c5.179687-5.703125 8-13 8-20.800781v-206.722656c0-7.679688-2.882813-15.117188-8-20.777344zm0 0"/><path d="m412.347656 422.832031c-1.480468 6.898438-5.039062 13.039063-10.039062 17.699219-2.699219 2.519531-5.820313 4.640625-9.238282 6.199219h21.957032c6.800781 0 13.28125-2.179688 18.601562-6.199219zm0 0"/></g></svg>