<svg id="Layer_1" enable-background="new 0 0 512.032 512.032" height="512" viewBox="0 0 512.032 512.032" width="512" xmlns="http://www.w3.org/2000/svg"><g><path d="m437.046 74.985c-48.354-48.355-112.645-74.985-181.03-74.985s-132.676 26.63-181.03 74.985c-48.356 48.355-74.986 112.646-74.986 181.031s26.63 132.676 74.985 181.031c48.354 48.355 112.646 74.985 181.03 74.985s132.676-26.63 181.03-74.985c48.355-48.355 74.985-112.646 74.985-181.031s-26.628-132.676-74.984-181.031z" fill="#ff415b"/><path d="m437.046 74.985c-48.354-48.355-112.645-74.985-181.03-74.985v512.032c68.385 0 132.676-26.63 181.03-74.985 48.355-48.355 74.985-112.646 74.985-181.031s-26.629-132.676-74.985-181.031z" fill="#db0f19"/><circle cx="256.016" cy="256.016" fill="#fff" r="162.438"/><path d="m256.016 93.578v324.876c89.568 0 162.438-72.869 162.438-162.438s-72.87-162.438-162.438-162.438z" fill="#e6f6ff"/><circle cx="256.016" cy="256.016" fill="#ff415b" r="71.727"/><path d="m256.016 184.29v143.453c39.55 0 71.727-32.176 71.727-71.727-.001-39.55-32.177-71.726-71.727-71.726z" fill="#db0f19"/><path d="m441.963 70.069-11.528-57.641-78.802 78.801 11.527 57.642 57.641 11.528 78.802-78.802z" fill="#ffd321"/><path d="m441.963 70.069-11.528-57.641-78.802 78.801 11.527 57.642 57.641 11.528 78.802-78.802z" fill="#ffaf00"/><g><path d="m245.32 178.543h146.338v30h-146.338z" fill="#3e5959" transform="matrix(.707 -.707 .707 .707 -43.572 281.893)"/></g><g><path d="m245.32 178.543h146.338v30h-146.338z" fill="#293939" transform="matrix(.707 -.707 .707 .707 -43.572 281.893)"/></g></g></svg>