<svg id="Capa_1" enable-background="new 0 0 512 512" height="512" viewBox="0 0 512 512" width="512" xmlns="http://www.w3.org/2000/svg"><g><path d="m372.909 188.14c-33.715-58.4-75.392-104.011-116.909-132.18-46.509-31.555-92.818-41.158-127.5-21.16-83.513 48.221-38.617 203.106 10.591 288.34 26.547 45.978 69.871 98.763 116.909 131.915 42.658 30.064 88.363 44.015 127.5 21.425 83.513-48.221 38.617-203.108-10.591-288.34zm-4.409 262.354c-28.002 16.115-70.142 2.025-112.5-32.459-32.225-26.235-64.576-64.25-90.923-109.894-38.842-67.252-85.988-210.168-21.577-247.355 32.432-18.697 74.121.657 112.5 33.137 37.299 31.564 71.472 75.52 90.923 109.217 38.842 67.251 85.988 210.165 21.577 247.354z" fill="#f0dbd8"/><path d="m383.5 476.48c83.513-48.221 38.617-203.108-10.591-288.34-33.715-58.4-75.392-104.011-116.909-132.18v37.963c37.299 31.564 71.472 75.52 90.923 109.217 38.842 67.251 85.988 210.165 21.577 247.354-28.002 16.115-70.142 2.025-112.5-32.459v37.02c42.658 30.064 88.363 44.015 127.5 21.425z" fill="#d9c3c3"/><path d="m383.5 34.8c-34.612-20.01-80.947-10.395-127.5 21.195-41.514 28.169-83.199 73.764-116.909 132.145-49.376 85.525-93.992 240.183-10.591 288.34 39.115 22.577 84.827 8.619 127.5-21.454 47.029-33.144 90.357-85.902 116.909-131.885 33.193-57.495 53.232-118.271 56.396-171.138 3.399-56.558-12.875-98.189-45.805-117.203zm15.864 115.401c-2.9 48.311-21.519 104.399-52.441 157.939-26.343 45.632-58.696 83.665-90.923 109.918-42.371 34.517-84.52 48.627-112.5 32.435-64.129-37.026-17.012-180.542 21.577-247.354 20.094-34.807 54.084-78.182 90.923-109.29 38.568-32.569 80.261-51.683 112.5-33.063 22.251 12.847 33.501 45.44 30.864 89.415z" fill="#57d9ad"/><path d="m372.909 323.14c33.193-57.495 53.232-118.271 56.396-171.138 3.399-56.557-12.875-98.188-45.805-117.202-34.612-20.01-80.947-10.395-127.5 21.195v37.855c38.568-32.569 80.261-51.683 112.5-33.063 22.251 12.847 33.501 45.439 30.864 89.414-2.9 48.311-21.519 104.399-52.441 157.939-26.343 45.632-58.696 83.665-90.923 109.918v36.967c47.029-33.144 90.357-85.902 116.909-131.885z" fill="#26bfa6"/><g><path d="m256 120.64c-142.998 0-256 59.297-256 135s113.002 135 256 135 256-59.297 256-135-113.002-135-256-135zm0 240c-121.963 0-226-48.091-226-105s104.037-105 226-105 226 48.091 226 105-104.037 105-226 105z" fill="#ffea80"/><path d="m512 255.64c0-75.703-113.002-135-256-135v30c121.963 0 226 48.091 226 105s-104.037 105-226 105v30c142.998 0 256-59.297 256-135z" fill="#fc6"/><path d="m317.816 208.824c-16.948-16.934-44.15-17.505-61.816-1.729-17.637-15.776-44.868-15.205-61.816 1.729-17.549 17.549-17.549 46.084 0 63.633l61.816 61.816 61.816-61.816c17.549-17.549 17.549-46.085 0-63.633z" fill="#f25555"/><path d="m317.816 208.824c-16.948-16.934-44.15-17.505-61.816-1.729v127.178l61.816-61.816c17.549-17.549 17.549-46.085 0-63.633z" fill="#d93752"/></g></g></svg>